<?xml version="1.0" encoding="UTF-8"?>
<svg id="Layer_1" data-name="Layer 1" xmlns="http://www.w3.org/2000/svg" viewBox="0 0 360 124">
  <defs>
    <style>
      .cls-1 {
        fill: #489dd6;
      }

      .cls-1, .cls-2 {
        stroke-width: 0px;
      }

      .cls-2 {
        fill: #00254c;
      }
    </style>
  </defs>
  <g>
    <path class="cls-2" d="M286.31,29.55c.33-2.04,1.64-3.52,2.92-3.31.75.12,1.31.8,1.59,1.73l15.09-15.04-1.04-12.28-33.08,36.3.05,9.92,14.7-14.64c-.3-.73-.4-1.68-.24-2.68Z"/>
    <path class="cls-2" d="M276.7,51.43c.21-1.3,1.05-2.24,1.86-2.11.53.08.91.6,1.07,1.3l17.71-15.84c-.27-.92-.36-2.02-.17-3.18.46-2.79,2.25-4.83,4.01-4.55,1.01.16,1.78,1.08,2.17,2.35l3.67-3.28-1.03-12.26-15,14.94c.05.47.04.98-.05,1.5-.33,2.04-1.64,3.52-2.92,3.31-.44-.07-.82-.35-1.12-.75l-15.05,15,.05,9.67,4.94-4.42c-.18-.46-.25-1.05-.14-1.68Z"/>
    <path class="cls-2" d="M287.75,76.67c.66.11,1.16.71,1.4,1.54l21.2-12.71-1.04-12.33-5.99,4.17c.08.64.07,1.34-.05,2.06-.44,2.68-2.16,4.64-3.85,4.36-.97-.16-1.71-1.04-2.08-2.26l-19.17,13.35c0,.18-.01.37-.04.56-.2,1.23-.99,2.12-1.76,2-.36-.06-.64-.33-.83-.72l-3.52,2.45.05,9.31,13.07-7.83c-.02-.34,0-.68.05-1.04.29-1.79,1.44-3.09,2.56-2.91Z"/>
    <path class="cls-2" d="M310.42,66.29l-21.12,12.66c.04.4.03.84-.05,1.29-.29,1.79-1.44,3.09-2.56,2.91-.72-.12-1.25-.81-1.46-1.75l-13.16,7.89.05,9.51,39.37-19.82-1.07-12.68Z"/>
    <path class="cls-2" d="M287.69,52.97c.6.1,1.05.66,1.26,1.43l19.18-15.25-1.03-12.16-3.57,3.19c.12.75.14,1.58,0,2.44-.46,2.79-2.25,4.83-4.01,4.55-.83-.13-1.49-.77-1.92-1.68l-17.91,16.02c0,.13-.02.27-.04.4-.21,1.3-1.05,2.24-1.86,2.11-.21-.03-.4-.14-.57-.3l-5.32,4.76.05,9.45,13.5-10.73c-.11-.48-.14-1.05-.04-1.63.26-1.59,1.28-2.74,2.28-2.58Z"/>
    <path class="cls-2" d="M275.34,74.96c.2-1.23.99-2.12,1.76-2,.47.08.82.51.98,1.1l19.1-13.3c-.12-.72-.14-1.52,0-2.35.44-2.68,2.16-4.64,3.85-4.36,1.05.17,1.83,1.16,2.17,2.52l6.05-4.21-1.04-12.36-19.13,15.21c.01.3,0,.61-.05.93-.26,1.59-1.28,2.74-2.28,2.58-.43-.07-.78-.39-1.03-.84l-13.76,10.94.05,9.47,3.32-2.31c-.05-.32-.05-.66,0-1.02Z"/>
  </g>
  <g>
    <polygon class="cls-2" points="255.95 73.47 252.62 76.41 252.62 86.74 255.95 84.23 255.95 73.47"/>
    <polygon class="cls-2" points="252.62 98.79 255.95 98.79 255.95 85.12 252.62 87.62 252.62 98.79"/>
    <polygon class="cls-2" points="255.95 13.77 252.62 18.93 252.62 29.76 255.95 25.05 255.95 13.77"/>
    <polygon class="cls-2" points="255.95 26.27 252.62 30.99 252.62 41.33 255.95 37.06 255.95 26.27"/>
    <polygon class="cls-2" points="255.95 38.21 252.62 42.47 252.62 52.63 255.95 48.8 255.95 38.21"/>
    <polygon class="cls-2" points="255.95 49.87 252.62 53.7 252.62 63.92 255.95 60.53 255.95 49.87"/>
    <polygon class="cls-2" points="255.95 61.54 252.62 64.93 252.62 75.47 255.95 72.52 255.95 61.54"/>
    <polygon class="cls-2" points="256.95 48.55 267.39 51.2 267.39 40.59 256.95 37.54 256.95 48.55"/>
    <polygon class="cls-2" points="256.95 98.62 267.39 98.79 267.39 86.33 256.95 84.89 256.95 98.62"/>
    <polygon class="cls-2" points="256.95 60.3 267.39 62.54 267.39 51.93 256.95 49.28 256.95 60.3"/>
    <polygon class="cls-2" points="267.39 16.81 256.95 12.9 256.95 24.78 267.39 28.24 267.39 16.81"/>
    <polygon class="cls-2" points="256.95 84.18 267.39 85.62 267.39 74.86 256.95 73.02 256.95 84.18"/>
    <polygon class="cls-2" points="256.95 72.3 267.39 74.14 267.39 63.27 256.95 61.02 256.95 72.3"/>
    <polygon class="cls-2" points="256.95 36.8 267.39 39.85 267.39 28.98 256.95 25.52 256.95 36.8"/>
  </g>
  <g>
    <g>
      <path class="cls-2" d="M3.56,33.79h4.7l7.64,11.78,7.64-11.78h4.7v24.92h-4.41v-17.87l-7.92,11.75h-.14l-7.85-11.68v17.8H3.56v-24.92Z"/>
      <path class="cls-2" d="M33.58,46.32v-.07c0-7.01,5.45-12.89,13.16-12.89s13.09,5.8,13.09,12.82v.07c0,7.01-5.45,12.89-13.16,12.89s-13.09-5.8-13.09-12.82ZM55.2,46.32v-.07c0-4.84-3.55-8.86-8.53-8.86s-8.46,3.95-8.46,8.79v.07c0,4.84,3.55,8.86,8.53,8.86s8.46-3.95,8.46-8.79Z"/>
      <path class="cls-2" d="M65.18,33.79h4.41v20.93h13.2v3.99h-17.61v-24.92Z"/>
      <path class="cls-2" d="M87.38,33.79h18.61v3.92h-14.2v6.48h12.59v3.92h-12.59v6.69h14.38v3.92h-18.79v-24.92Z"/>
      <path class="cls-2" d="M110.29,46.32v-.07c0-7.08,5.34-12.89,12.95-12.89,4.63,0,7.42,1.6,9.83,3.88l-2.83,3.24c-2.01-1.85-4.16-3.1-7.03-3.1-4.8,0-8.28,3.92-8.28,8.79v.07c0,4.88,3.48,8.86,8.28,8.86,3.08,0,5.06-1.25,7.21-3.24l2.83,2.85c-2.62,2.71-5.49,4.41-10.18,4.41-7.31,0-12.77-5.66-12.77-12.82Z"/>
      <path class="cls-2" d="M137.48,48.13v-14.35h4.41v14.17c0,4.63,2.4,7.12,6.35,7.12s6.31-2.35,6.31-6.94v-14.35h4.41v14.13c0,7.44-4.23,11.18-10.79,11.18s-10.69-3.74-10.69-10.96Z"/>
      <path class="cls-2" d="M165.02,33.79h4.41v20.93h13.2v3.99h-17.61v-24.92Z"/>
      <path class="cls-2" d="M196.11,33.61h4.09l11.04,25.1h-4.66l-2.55-6.02h-11.87l-2.58,6.02h-4.52l11.04-25.1ZM202.42,48.81l-4.34-9.97-4.3,9.97h8.64Z"/>
      <path class="cls-2" d="M215.55,33.79h11.19c3.16,0,5.63.93,7.24,2.49,1.33,1.35,2.08,3.2,2.08,5.38v.07c0,4.09-2.47,6.55-5.99,7.55l6.78,9.43h-5.2l-6.17-8.69h-5.52v8.69h-4.41v-24.92ZM226.42,46.14c3.16,0,5.16-1.64,5.16-4.17v-.07c0-2.67-1.94-4.13-5.2-4.13h-6.42v8.37h6.45Z"/>
    </g>
    <g>
      <path class="cls-2" d="M3.82,66.82h24.24v6.32H10.83v6.73h15.19v6.32h-15.19v12.24H3.82v-31.61Z"/>
      <path class="cls-2" d="M32.25,82.71v-.09c0-8.98,7.14-16.34,16.97-16.34s16.88,7.27,16.88,16.25v.09c0,8.99-7.14,16.34-16.97,16.34s-16.88-7.27-16.88-16.25ZM58.77,82.71v-.09c0-5.42-4-9.93-9.64-9.93s-9.55,4.42-9.55,9.84v.09c0,5.42,4,9.93,9.64,9.93s9.55-4.42,9.55-9.84Z"/>
      <path class="cls-2" d="M71.83,84.88v-18.06h7v17.88c0,5.15,2.59,7.81,6.87,7.81s6.87-2.57,6.87-7.59v-18.11h7v17.83c0,9.57-5.41,14.27-13.96,14.27s-13.78-4.74-13.78-14.04Z"/>
      <path class="cls-2" d="M106.72,66.82h6.46l14.92,19.46v-19.46h6.91v31.61h-5.96l-15.42-20.09v20.09h-6.91v-31.61Z"/>
      <path class="cls-2" d="M142.66,66.82h12.42c10.01,0,16.92,6.82,16.92,15.71v.09c0,8.89-6.91,15.8-16.92,15.8h-12.42v-31.61ZM155.07,92.15c5.73,0,9.6-3.84,9.6-9.44v-.09c0-5.6-3.87-9.53-9.6-9.53h-5.41v19.05h5.41Z"/>
      <path class="cls-2" d="M178.23,66.82h14.56c4.05,0,7.19,1.13,9.28,3.21,1.77,1.76,2.73,4.24,2.73,7.22v.09c0,5.1-2.77,8.31-6.82,9.8l7.78,11.29h-8.19l-6.82-10.11h-5.5v10.11h-7.01v-31.61ZM192.33,82.17c3.41,0,5.37-1.81,5.37-4.47v-.09c0-2.98-2.09-4.51-5.5-4.51h-6.96v9.08h7.1Z"/>
      <path class="cls-2" d="M218.94,85.97l-12.24-19.14h8.19l7.6,12.69,7.73-12.69h7.96l-12.24,19.01v12.6h-7v-12.46Z"/>
    </g>
  </g>
  <rect class="cls-1" y="116.76" width="315.56" height="7.23"/>
  <g>
    <polygon class="cls-2" points="308.89 39.8 309.94 52.25 356.13 65.74 354.33 55.38 308.89 39.8"/>
    <polygon class="cls-2" points="307.73 26 352.25 43.46 350.43 32.96 306.68 13.64 307.73 26"/>
    <polygon class="cls-2" points="311.05 65.39 358.04 76.73 356.26 66.51 310.01 53 311.05 65.39"/>
    <polygon class="cls-2" points="306.62 12.84 350.28 32.13 348.38 21.17 305.53 0 306.62 12.84"/>
    <polygon class="cls-2" points="358.17 77.49 311.11 66.13 312.19 78.84 360 88 358.17 77.49"/>
    <polygon class="cls-2" points="307.79 26.78 308.83 39.04 354.19 54.58 352.39 44.28 307.79 26.78"/>
  </g>
</svg>