<svg version="1.1" id="Layer_1" xmlns="http://www.w3.org/2000/svg" xmlns:xlink="http://www.w3.org/1999/xlink" x="0px" y="0px"
     viewBox="0 0 720 720" style="enable-background:new 0 0 720 720;" xml:space="preserve">
<style type="text/css">
    .st0{display:none;}
    .st1{display:inline;}
    .st2{fill:#1D3B77;}
    .st3{opacity:0.3;}
    .st4{fill:#9BC1F9;}
    .st5{fill:#92BFF8;}
    .st6{fill:#7BA9E4;}
    .st7{fill:#E8DBC4;}
    .st8{fill:#FFFFFF;}
    .st9{fill:#EAEAEA;}
    .st10{fill:#105DC5;}
    .st11{fill:#FF4035;}
    .st12{fill:#C7DCFB;}
    .st13{fill:#3D7EDA;}
    .st14{fill:#D2DAEF;}
    .st15{fill:#E23827;}
    .st16{fill:#404654;}
    .st17{fill:#C68C8B;}
    .st18{fill:#FBCBA5;}
    .st19{fill:#1A1943;}
    .st20{fill:#ED201B;}
    .st21{fill:#F6B1C3;}
    .st22{fill:#2A458A;}
</style>
<g>
    <g id="hair">
        <path class="st21" d="M338.4,286.1c-0.1,0.4-0.4,0.8-0.8,1c-0.2,0.1-0.4,0.1-0.6,0.1c-0.2,0-0.5,0-0.7,0.1
            c-0.1,0.1-0.2,0.2-0.2,0.3c-0.2,0.4-0.1,0.8-0.2,1.1c-0.1,0.3-0.3,0.7-0.5,1c-0.5,0.7-1.1,1.3-1.7,1.9c-0.8,0.8-1.8,1.7-3.4,1.8
            c-0.9,0.1-1.6-0.1-2-0.3c-0.5,0.3-1.1,0.8-2,1.3c-0.5,0.3-2.9,1.5-6.4,2c-0.6,0.1-1.4,0.2-2.3,0.2l11.4-7.2
            c0.1-0.4,0.2-0.9,0.3-1.3c0.2-1.6,0.4-3.1,0.6-4.7c0-0.3,0.1-0.6,0.2-0.8c0.3-0.5,0.8-0.5,1.3-0.2c0.5,0.3,1,1.3,1.7,1.1
            c0.1,0,0.1-0.1,0.2-0.1c0.2-0.3,0.1-0.7,0-1c-0.1-1-0.6-2-0.6-3c0-0.2,0-0.4,0.1-0.5c0.5-1.2,2,0.5,2.4,1c1,1.3,1.8,2.6,2.6,4.1
            c0.1,0.1,0.1,0.3,0.2,0.4C338.4,284.8,338.6,285.4,338.4,286.1z"/>
    </g>
    <g id="pencil">
        <path class="st11" d="M302.4,276l-33.6,21.2c1.3,1.8,2.3,3.3,3.1,4.5c0.7,1.1,2,3.2,4.3,5.7c0.7,0.7,1.3,1.4,2,2
            c-0.2,0.2-0.4,0.5-0.7,0.7c-0.9,1-2.1,2-3.4,3c-1.2,0.9-2.4,1.6-3.5,2.1c-0.6-0.5-1.3-1.1-2.1-1.7c-4.2-3.7-6.9-7-8.8-9.3
            c-0.1-0.2-0.3-0.4-0.6-0.8c-0.4-0.6-1-1.3-1.7-2.4c-1-1.3-2.2-3.1-3.8-5.4c-1.4-2-2.2-3.2-2.8-5c-0.6-2-0.7-3.6-0.5-6.5
            c0.3-6.3,1-11,1.1-11.3c0.2-1.4,0.7-4.3,1.8-9c0.1-0.4,0.2-0.9,0.3-1.3c1.9-8.5,2.9-12.7,4.3-14.8c3.7-5.2,9.2-7.3,11.2-8
            c1.2-0.4,2.4-0.8,3.5-1c0.7,0.8,1.7,1.7,3,2.6c0.7,0.5,1.5,0.9,2.3,1.2c1,0.4,2.6,1.1,4.4,1c1.4-0.1,2.7-0.6,3.7-1.3
            c-0.2-1-0.4-2-0.5-3.1c1,0.2,2.1,0.4,3.2,0.5c1.1,0.2,2.2,0.3,3.2,0.4c2.2,0.2,4.4,0.3,6.4,1.4c2.2,1.2,3.6,3.3,4.8,5.4
            c1.3,2.4,2.6,4.9,3.7,7.4c2.3,5.1,4.5,10.2,6.4,15.5L302.4,276z"/>
    </g>
</g>


<g>
	<g class="st0">
		<g class="st1">
			<path class="st2" d="M316.5,490.4l1.7-3.7c1.8,1.3,4.4,2.2,7,2.2c2.9,0,4.1-1,4.1-2.3c0-3.9-12.3-1.2-12.3-9.1
				c0-3.6,2.9-6.6,8.9-6.6c2.6,0,5.4,0.6,7.3,1.9l-1.5,3.7c-2-1.1-4-1.7-5.8-1.7c-2.9,0-4,1.1-4,2.4c0,3.9,12.3,1.2,12.3,8.9
				c0,3.5-2.9,6.5-8.9,6.5C321.7,492.8,318.3,491.8,316.5,490.4z"/>
		</g>
		<g class="st1">
			<path class="st2" d="M353.3,476.2v16.2h-4.5v-1.9c-1.2,1.4-3,2.2-5,2.2c-4.1,0-6.9-2.3-6.9-7.3v-9.2h4.7v8.5
				c0,2.7,1.2,3.9,3.3,3.9c2.2,0,3.7-1.4,3.7-4.4v-8H353.3z"/>
		</g>
		<g class="st1">
			<path class="st2" d="M367.7,476v4.3c-0.4,0-0.7-0.1-1.1-0.1c-2.6,0-4.3,1.4-4.3,4.5v7.6h-4.7v-16.2h4.5v2.1
				C363.3,476.8,365.2,476,367.7,476z"/>
		</g>
		<g class="st1">
			<path class="st2" d="M387.2,476.2l-6.8,16.2h-4.8l-6.8-16.2h4.8l4.5,11l4.6-11H387.2z"/>
		</g>
		<g class="st1">
			<path class="st2" d="M404.4,485.7h-12.3c0.5,2,2.2,3.3,4.6,3.3c1.7,0,3-0.5,4.1-1.6l2.5,2.7c-1.5,1.7-3.8,2.6-6.7,2.6
				c-5.6,0-9.2-3.5-9.2-8.3c0-4.8,3.7-8.3,8.6-8.3c4.8,0,8.4,3.2,8.4,8.4C404.5,484.8,404.5,485.3,404.4,485.7z M392.1,482.9h8
				c-0.3-2-1.9-3.4-4-3.4C394,479.6,392.5,480.8,392.1,482.9z"/>
		</g>
		<g class="st1">
			<path class="st2" d="M423.4,476.2l-7.3,17.2c-1.6,3.9-3.8,5.1-6.7,5.1c-1.7,0-3.5-0.5-4.5-1.5l1.7-3.3c0.7,0.6,1.7,1,2.6,1
				c1.3,0,2-0.6,2.6-2l0.1-0.2l-7-16.3h4.8l4.5,11l4.6-11H423.4z"/>
		</g>
	</g>
	<g>
		<g class="st3">
			<path class="st4" d="M562.1,318.8H557c-16.7,0-30.2-13.9-30.2-31.2v0c0-14.4-11.3-26-25.2-26h-33.4c8.4-5.1,14-15,14-26.4v0
				c0-16.7-12.1-30.2-27.1-30.2h-7.3c-12.8,0-24.9-5.6-33.1-15.4c-13.9-16.7-34.8-27.4-58.2-27.4c-23.4,0-44.4,10.7-58.2,27.4
				c-8.1,9.8-20.3,15.4-33.1,15.4h-3.6c-13.4,0-24.3,12.1-24.3,27.1v0c0,17.9-13,32.5-29.1,32.5h-4.9c-16.5,0-29.9,14.9-29.9,33.3v0
				c0,18.4,13.4,33.3,29.9,33.3c16.1,0,29.1,14.5,29.1,32.5v6.2c0,8.4,3.4,16,8.9,20.9h-50.5c-15.2,0-27.5,12.3-27.5,27.5v0
				c0,15.2,12.3,27.5,27.5,27.5h164.9c0.9,0,1.8,0,2.7-0.1h148.3c13.9,0,25.2-11.6,25.2-26v-5.9c0-17.2,13.5-31.2,30.2-31.2h0
				c17.1,0,30.9-14.3,30.9-31.9v0C593.1,333.1,579.2,318.8,562.1,318.8z"/>
		</g>
		<g>
			<g>
				<g>
					<path class="st5" d="M263.6,235.9c-1.4-2-3-3.8-4.9-5.2l1.4-5.7l-3.7-1.7l-3.7-1.7l-3.4,4.9c-2.3-0.5-4.8-0.5-7.2-0.2l-3.1-5
						l-3.8,1.4l-3.8,1.4l1.1,5.8c-2,1.4-3.8,3-5.2,4.9l-5.7-1.4l-1.7,3.7l-1.7,3.7l4.9,3.4c-0.5,2.3-0.5,4.8-0.2,7.2l-5,3.1l1.4,3.8
						l1.4,3.8l5.8-1.1c1.4,2,3,3.8,4.9,5.2l-1.4,5.7l3.7,1.7l3.7,1.7l3.4-4.9c2.3,0.5,4.8,0.5,7.2,0.2l3.1,5l3.8-1.4l3.8-1.4
						l-1.1-5.8c2-1.4,3.8-3,5.2-4.9l5.7,1.4l1.7-3.7l1.7-3.7l-4.9-3.4c0.5-2.3,0.5-4.8,0.2-7.2l5-3.1l-1.4-3.8l-1.4-3.8L263.6,235.9
						z M250.4,262.5c-7.8,3-16.6-1-19.5-8.8c-3-7.8,1-16.6,8.8-19.5c7.8-3,16.6,1,19.5,8.8C262.2,250.8,258.2,259.6,250.4,262.5z"/>
				</g>
			</g>
		</g>
		<g>
			<g>
				
					<rect x="298.3" y="241.6" transform="matrix(0.1251 -0.9921 0.9921 0.1251 45.8262 711.657)" class="st6" width="256.3" height="176.4"/>
			</g>
			<g>
				<path class="st7" d="M510.1,249.4c-0.8,0.1-2.4,0.9-2.7,1.1c-1.6,0.7-3.2,1.4-4.9,1.7c-4.6,0.8-8.8-2.6-12.2-5.3L510.1,249.4z"
					/>
			</g>
			<g>
				<g>
					<path class="st8" d="M492.9,226.6l-125.4-15.8l-27.1,214.6l145.7,18.4l24.5-194.4C504.7,241.8,498.8,234.2,492.9,226.6z
						 M507.4,250.5c-1.6,0.7-3.2,1.4-4.9,1.7c-4.6,0.8-8.8-2.6-12.2-5.3l19.8,2.5C509.3,249.5,507.8,250.3,507.4,250.5z"/>
				</g>
			</g>
			<g>
				
					<rect x="396.8" y="216.5" transform="matrix(0.9921 0.1251 -0.1251 0.9921 32.4654 -53.0169)" class="st9" width="82.9" height="30.9"/>
			</g>
			<g>
				
					<rect x="423.3" y="184.3" transform="matrix(0.1251 -0.9921 0.9921 0.1251 157.7573 634.6737)" class="st10" width="30.9" height="87.2"/>
			</g>
			<g>
				<path class="st10" d="M463,219.5l-45.6-5.7v0c0.6-5,5.2-8.5,10.2-7.9l27.5,3.5C460.1,209.9,463.6,214.5,463,219.5L463,219.5z"/>
			</g>
			<g>
				<path class="st9" d="M461.9,237.2l-47.9-6c-2.9-0.4-4.9-3-4.5-5.8l0,0c0.4-2.9,3-4.9,5.8-4.5l47.9,6c2.9,0.4,4.9,3,4.5,5.8v0
					C467.4,235.6,464.8,237.6,461.9,237.2z"/>
			</g>
			<g>
				<g>
					<path class="st11" d="M381.7,263.9l1.9-3.1c1.3,1.1,3.2,2,5,2.2c1.8,0.2,2.6-0.2,2.7-1c0.3-2.5-8.8-1.8-8.1-7.6
						c0.4-2.8,2.9-4.8,7.6-4.2c2,0.3,4.1,1,5.5,2.1l-1.8,3.1c-1.4-1-2.8-1.6-4.2-1.8c-1.9-0.2-2.6,0.3-2.7,1.1
						c-0.3,2.4,8.8,1.7,8.1,7.5c-0.3,2.7-2.9,4.8-7.5,4.2C385.5,266.1,383,265.1,381.7,263.9z"/>
				</g>
				<g>
					<path class="st11" d="M400,260.6l1.1-8.7l4.4,0.6l-1.1,8.5c-0.3,2.7,0.6,3.9,2.5,4.1c1.8,0.2,3.1-0.7,3.4-3.4l1.1-8.5l4.3,0.5
						l-1.1,8.7c-0.6,4.7-3.6,6.9-8.3,6.3C401.8,268.2,399.4,265.2,400,260.6z"/>
				</g>
				<g>
					<path class="st11" d="M426.4,266.7l-2.4-0.3l-0.5,4.1L419,270l2-15.6l7.1,0.9c4.3,0.5,6.7,3.1,6.2,6.7
						c-0.3,2.3-1.6,3.9-3.7,4.5l2.7,5.3l-4.7-0.6L426.4,266.7z M427.4,258.8l-2.5-0.3l-0.6,4.6l2.5,0.3c1.8,0.2,2.8-0.5,3-1.9
						C430.1,259.9,429.3,259,427.4,258.8z"/>
				</g>
				<g>
					<path class="st11" d="M455.6,258.8l-8.7,14.8l-4.3-0.5l-4.7-16.5l4.8,0.6l3,10.7l5.6-9.6L455.6,258.8z"/>
				</g>
				<g>
					<path class="st11" d="M469.7,272.9l-0.4,3.4l-12.5-1.6l2-15.6l12.2,1.5l-0.4,3.4l-7.9-1l-0.3,2.6l6.9,0.9l-0.4,3.3l-6.9-0.9
						l-0.4,2.9L469.7,272.9z"/>
				</g>
				<g>
					<path class="st11" d="M482.9,272.4l-0.7,5.6l-4.4-0.6l0.7-5.7l-4.7-10.7l4.7,0.6l2.9,6.7l4.5-5.7l4.3,0.5L482.9,272.4z"/>
				</g>
			</g>
			<g>
				<g>
					<g>
						
							<rect x="379" y="280.6" transform="matrix(0.1251 -0.9921 0.9921 0.1251 51.6491 645.4391)" class="st12" width="25.7" height="25.7"/>
					</g>
					<g>
						<polygon class="st13" points="387.3,301.1 382.1,293.9 385.7,291 388.2,294.2 398.6,286.5 401.4,290.2 						"/>
					</g>
					<g>
						<g>
							
								<rect x="446.7" y="275.2" transform="matrix(0.1251 -0.9921 0.9921 0.1251 89.3099 714.6286)" class="st14" width="6.2" height="63"/>
						</g>
						<g>
							
								<rect x="438.8" y="271.8" transform="matrix(0.1251 -0.9921 0.9921 0.1251 95.0825 695.4993)" class="st13" width="6.2" height="44"/>
						</g>
					</g>
				</g>
				<g>
					<g>
						
							<rect x="374.2" y="318.5" transform="matrix(0.1251 -0.9921 0.9921 0.1251 9.8719 673.8493)" class="st12" width="25.7" height="25.7"/>
					</g>
					<g>
						<polygon class="st13" points="382.5,339 377.3,331.8 381,328.9 383.4,332 393.8,324.4 396.6,328.1 						"/>
					</g>
					<g>
						<g>
							
								<rect x="442" y="313.1" transform="matrix(0.1251 -0.9921 0.9921 0.1251 47.5326 743.0387)" class="st14" width="6.2" height="63"/>
						</g>
						<g>
							
								<rect x="434" y="309.7" transform="matrix(0.1251 -0.9921 0.9921 0.1251 53.3051 723.9092)" class="st13" width="6.2" height="44"/>
						</g>
					</g>
				</g>
				<g>
					<g>
						
							<rect x="369.4" y="356.4" transform="matrix(0.1251 -0.9921 0.9921 0.1251 -31.9054 702.2594)" class="st12" width="25.7" height="25.7"/>
					</g>
					<g>
						<polygon class="st13" points="377.7,376.9 372.5,369.6 376.2,366.8 378.6,369.9 389,362.3 391.8,366 						"/>
					</g>
					<g>
						<g>
							
								<rect x="437.2" y="351" transform="matrix(0.1251 -0.9921 0.9921 0.1251 5.7554 771.4488)" class="st14" width="6.2" height="63"/>
						</g>
						<g>
							
								<rect x="429.2" y="347.6" transform="matrix(0.1251 -0.9921 0.9921 0.1251 11.5282 752.3197)" class="st13" width="6.2" height="44"/>
						</g>
					</g>
				</g>
				<g>
					<g>
						
							<rect x="364.6" y="394.3" transform="matrix(0.1251 -0.9921 0.9921 0.1251 -73.6829 730.6691)" class="st12" width="25.7" height="25.7"/>
					</g>
					<g>
						<polygon class="st13" points="373,414.8 367.8,407.5 371.4,404.7 373.8,407.8 384.2,400.2 387.1,403.8 						"/>
					</g>
					<g>
						<g>
							
								<rect x="432.4" y="388.9" transform="matrix(0.1251 -0.9921 0.9921 0.1251 -36.0219 799.8589)" class="st14" width="6.2" height="63"/>
						</g>
						<g>
							
								<rect x="424.5" y="385.5" transform="matrix(0.1251 -0.9921 0.9921 0.1251 -30.2493 780.7296)" class="st13" width="6.2" height="44"/>
						</g>
					</g>
				</g>
			</g>
		</g>
		<g>
			<g>
				<path class="st15" d="M259,303.3l-1.9,1.2c0-0.4,0-0.8,0.1-1.1c0-0.8,0.1-1.6,0.1-2.4C258.1,301.9,258.6,302.7,259,303.3z"/>
			</g>
			<g>
				<path class="st16" d="M329.6,424.4c-0.3,0.1-0.7,0.2-1,0.3c-2.2,0.7-4.8,1.3-7.7,1.6c-1,0.1-1.9,0.2-2.9,0.2
					c-1.3,0.1-2.5,0.1-3.7,0c-6.1-16.7-11.9-34.6-17.4-53.5c-4.2-14.6-7.9-28.8-11.1-42.4c-0.6,3.6-1.4,8.7-2.2,14.8
					c-1.7,12.8-3.8,28.4-4.4,47.5c-0.2,8.1-0.3,18.8,0.5,31.5c-0.6,0.3-1.5,0.7-2.5,1c-1.1,0.3-2.4,0.6-3.8,0.7
					c-1.4,0.1-2.6,0-3.7-0.1c-1.7-0.2-3.1-0.7-4-1.1c-0.8-6.2-2-15.6-3.6-27.1c-3.2-23.3-3.2-20.9-3.9-27.1
					c-1.4-12.6-1.9-24.3-1.9-35.5l20.2-12.7c0.2,0.1,0.4,0.2,0.5,0.3c0.5,0.2,0.9,0.2,1,0.2c0.8,0.1,1.4-0.2,2-0.5
					c1.9-0.9,1.6-0.5,3.6-1.5c0.5-0.2,1.2-0.6,2-1c1-0.1,1.9-0.2,2.9-0.2c0.4-0.2,1.1-0.8,1.6-1.7c0.5-0.8,0.6-1.5,0.6-2
					c0.1-0.8-0.1-1-0.2-1c-0.2-0.1-0.4,0.1-0.9,0.5c-0.5,0.3-0.9,0.6-1.1,0.7c-0.8,0.4-1.6,0.3-2.2,0.2c-0.1,0-0.1,0-0.2,0
					l20.3-12.8c4.5,12.4,7.1,22.7,8.6,29.8c5,23.5,3.7,36.1,9,65.4C326.1,410,328.2,418.9,329.6,424.4z"/>
			</g>
			<g>
				<path class="st17" d="M285.1,237.7c-0.9,0.1-1.7,0.1-2.3,0.1c-2.8-0.1-4.1-0.8-4.6-1.1c-0.6-0.4-1.1-0.9-1.5-1.3
					c0.3,0.2,0.7,0.3,1,0.4c2.6,0.8,5.2,0,7.3-1.5c0,0.8,0,1.5,0,2.4C285.1,237,285.1,237.3,285.1,237.7z"/>
			</g>
			<g>
				<path class="st18" d="M289.7,222.1c-0.1,2.9-0.2,5.8-1.6,8.5c0,0,0,0,0,0c-0.7,1.4-1.8,2.6-3.1,3.6c-2.1,1.6-4.7,2.3-7.3,1.5
					c-0.4-0.1-0.7-0.2-1-0.4c-0.8-0.4-1.5-0.9-2.1-1.5l0,0c-1.7-1.6-2.8-3.9-3.5-6.1c-0.8-2.5-1-5.1-0.6-7.6
					c0.2,0.5,0.4,0.9,0.6,1.3c0.5,0.9,0.8,1.2,1.2,1.2c0.2,0,0.7,0,1.7-1.6c1-1.7,1.2-3.1,1.8-5.1c0.2-0.8,0.6-2,1.1-3.4
					c1.4,1.5,3.2,3.4,5.4,5.6c2,2,3.2,3.2,5.1,3.7C288.3,222.1,289.1,222.1,289.7,222.1z"/>
			</g>
			<g>
				<path class="st19" d="M297.5,220.7c0,1.9,0,4.5-1.9,6.8c-1.8,2.1-4.1,2.7-4.9,2.9c-1,0.2-1.8,0.2-2.5,0.2
					c1.4-2.6,1.5-5.6,1.6-8.5c-0.6,0-1.4-0.1-2.3-0.3c-1.9-0.5-3.1-1.7-5.1-3.7c-2.2-2.2-4-4.1-5.4-5.6c-0.5,1.4-0.9,2.6-1.1,3.4
					c-0.6,2-0.8,3.4-1.8,5.1c-1,1.6-1.5,1.7-1.7,1.6c-0.4,0-0.7-0.4-1.2-1.2c-0.2-0.3-0.4-0.8-0.6-1.3c-0.4,2.5-0.2,5.1,0.6,7.6
					c0.7,2.2,1.8,4.4,3.5,6.1l0,0c0.1,0.9,0.3,1.9,0.4,2.9c0,0.5,0.1,0.9,0.1,1.4c-0.9,0.1-1.9,0.2-2.9,0.5c-1.1,0.2-2.3,0.6-3.5,1
					c-2,0.7-7.5,2.8-11.2,8c-1.4,2.1-2.4,6.3-4.3,14.8c-0.1,0.5-0.2,0.9-0.3,1.3c-2.3-0.2-5.8-1.1-8.1-4.2c-2.2-2.9-2.1-6.2-2-7
					c0-0.5,0.3-3.8,2.8-6.7c0.9-1,2.4-1.8,5.3-3.4c4.9-2.6,5.4-2.5,7.2-3.9c2.3-1.9,3.6-4,4.2-5.3c1.4-2.7,1.7-5.1,1.9-7.9
					c0.4-4-0.2-4.2,0.2-7.2c0.3-1.9,0.7-5.4,3.2-8.7c2.9-3.8,6.8-5.2,8.4-5.7c1.3-0.4,5.9-1.7,10.8,0.5c4,1.8,6,4.9,7.2,6.7
					C295.3,212.4,297.5,215.9,297.5,220.7z"/>
			</g>
			<g>
				<path class="st18" d="M285.7,242c-1.1,0.7-2.3,1.3-3.7,1.3c-1.8,0.1-3.5-0.6-4.4-1c-0.9-0.4-1.7-0.8-2.3-1.2
					c-1.3-0.9-2.3-1.8-3-2.6c1-0.2,2-0.4,2.9-0.5c0-0.4-0.1-0.9-0.1-1.4c-0.1-1-0.2-2-0.4-2.9c0.6,0.6,1.3,1.1,2.1,1.5
					c0.4,0.5,0.9,0.9,1.5,1.3c0.5,0.3,1.8,1.1,4.6,1.1c0.6,0,1.4,0,2.3-0.1c0,0.4,0.1,0.8,0.1,1.2C285.3,240,285.5,241,285.7,242z"
					/>
			</g>
			<g>
				<path class="st18" d="M280,437.7c0,0.5-0.1,1.1-0.5,1.5c-0.1,0.2-0.3,0.3-0.5,0.4c-0.6,0.4-1.4,0.4-2,0.4
					c-1.2,0-1.3-0.4-2.7-0.6c-1.2-0.2-2.4-0.1-2.9,0c-0.6,0.1-1.1,0.1-2,0.2c-0.8,0.1-1.1,0.1-1.3-0.1c-0.6-0.4-0.6-1.5-0.5-1.8
					c0.1-0.7,0.2-1.8,0.5-3.2c0-0.1,0-0.1,0-0.2c0.3-1.9,0.5-3.3,0.9-4.9c0.3-1.2,0.5-2.3,0.8-3.3c1.1,0.2,2.4,0.2,3.7,0.1
					c1.5-0.1,2.7-0.4,3.8-0.7c0.2,0.8,0.5,1.9,0.8,3c1,3.7,1.3,4.5,1.6,5.9c0.1,0.3,0.1,0.6,0.1,0.9
					C279.9,435.9,280,436.7,280,437.7z"/>
			</g>
			<g>
				<path class="st19" d="M280.7,445.1c-0.7,0.4-1.5,0.4-2.3,0.5c-3.6,0.5-7.3,0.3-10.8-0.8c-1.7-0.5-2.4-2.1-2.2-3.8
					c0.2-1.7,1-3.4,1.7-4.9c0.2-0.5,0.6-1.2,0.9-1.9c0,0.1,0,0.1,0,0.2c-0.2,1.3-0.4,2.4-0.5,3.2c0,0.3-0.1,1.4,0.5,1.8
					c0.3,0.2,0.5,0.2,1.3,0.1c1-0.1,1.4-0.1,2-0.2c0.5-0.1,1.6-0.2,2.9,0c1.4,0.2,1.6,0.6,2.7,0.6c0.6,0,1.4,0,2-0.4
					c0.2-0.1,0.3-0.3,0.5-0.4c0.3-0.4,0.5-0.9,0.5-1.5c0-1-0.1-1.8-0.2-2.6c0.9,2.4,1.8,5,1.9,7.6
					C281.7,443.6,281.5,444.6,280.7,445.1z"/>
			</g>
			<g>
				<path class="st18" d="M341,437.9c-0.2,0.1-0.5,0.2-0.7,0.3c-1.2,0.5-2.2,0.4-3.1,0.5c-2.6,0.3-4.6,0.1-6,0
					c-2.4-0.2-3.7-0.4-5.1-0.9c-2.7-1-4.1-1.6-5-2.3c-0.2-0.2-0.6-0.5-1.1-0.7c-0.1-1.2-0.2-2.2-0.4-3.1c-0.3-1.8-0.7-2.9-0.8-3.2
					c-0.3-0.8-0.6-1.4-0.8-1.9c0.9,0,1.9-0.1,2.9-0.2c3-0.3,5.6-0.9,7.7-1.6c0.3,1.3,0.6,2.3,0.8,2.9c0.3,1.1,0.4,1.5,0.7,2.2
					c0.1,0.2,0.6,1.2,1.5,2.2c0.7,0.7,1.5,1.4,3,2.4c1.8,1.1,2.7,1.4,4.2,2.2C339.4,436.9,340.1,437.3,341,437.9z"/>
			</g>
			<g>
				<path class="st19" d="M349.8,442.8c0,0.5-0.6,0.6-0.9,0.7c-3.7,1.3-7.7,1.4-11.6,1.2c-0.8,0-1.6-0.1-2.3-0.1
					c-1.2-0.1-2.4-0.2-3.5-0.6c-0.8-0.4-1.5-0.9-2.3-1.2c-0.8-0.3-1.8-0.4-2.7-0.2c-0.6,0.1-1,0.4-1.4,0.6c-0.2,0.1-0.4,0.2-0.7,0.1
					c-0.8-0.1-1.6-0.3-2.5-0.5c-1.1-0.3-2-0.7-2.9-1.1c-0.5-0.2-0.8-0.8-0.8-1.3c0.1-1,0.1-1.9,0-2.6c0-0.9-0.1-1.8,0.4-2.5
					c0.1-0.1,0.4-0.5,0.8-0.6c0.2,0,0.3,0,0.5,0c0.5,0.1,0.9,0.5,1.1,0.7c0.9,0.8,2.2,1.3,5,2.3c1.4,0.5,2.6,0.7,5.1,0.9
					c1.4,0.1,3.4,0.3,6,0c0.8-0.1,1.8-0.1,3.1-0.5c0.3-0.1,0.5-0.2,0.7-0.3c0.1,0,0.1-0.1,0.2-0.1c0.5-0.3,1.1-0.2,1.5,0.1
					c0.2,0.2,0.5,0.3,0.7,0.5c1,0.6,2,1.3,3.3,2.2c0.5,0.3,0.9,0.5,1.4,0.8c0.5,0.3,1,0.5,1.4,1
					C349.7,442.4,349.8,442.6,349.8,442.8z"/>
			</g>
			<g>
				<g>
					
						<rect x="226.5" y="317.2" transform="matrix(0.848 -0.5299 0.5299 0.848 -133.8412 173.8552)" class="st13" width="19.5" height="6.2"/>
				</g>
				<g>
					
						<rect x="243.9" y="275.2" transform="matrix(0.848 -0.5299 0.5299 0.848 -101.3649 203.0961)" class="st13" width="119" height="6.2"/>
				</g>
				<g>
					
						<rect x="243.7" y="309.4" transform="matrix(0.8481 -0.5299 0.5299 0.8481 -127.7992 179.2935)" class="st20" width="10" height="6.2"/>
				</g>
				<g>
					<polygon class="st14" points="355.6,249.4 352.3,244.1 370,241.2 373.3,246.4 					"/>
				</g>
				<g>
					<polygon class="st6" points="373.3,246.4 370,241.2 385.9,238.5 381.2,245.1 					"/>
				</g>
				<g>
					
						<rect x="233.4" y="321.4" transform="matrix(0.848 -0.5299 0.5299 0.848 -138.6537 179.2)" class="st10" width="19.5" height="19.9"/>
				</g>
				<g>
					
						<rect x="250.8" y="279.4" transform="matrix(0.848 -0.5299 0.5299 0.848 -106.1775 208.4417)" class="st12" width="119" height="19.9"/>
				</g>
				<g>
					
						<rect x="250.7" y="313.6" transform="matrix(0.848 -0.5299 0.5299 0.848 -132.6123 184.6399)" class="st11" width="10" height="19.9"/>
				</g>
				<g>
					<polygon class="st8" points="366.1,266.3 355.6,249.4 373.3,246.4 376.6,251.6 					"/>
				</g>
				<g>
					<polygon class="st6" points="376.6,251.6 373.3,246.4 381.2,245.1 					"/>
				</g>
			</g>
			<g>
				<path class="st21" d="M338.4,286.1c-0.1,0.4-0.4,0.8-0.8,1c-0.2,0.1-0.4,0.1-0.6,0.1c-0.2,0-0.5,0-0.7,0.1
					c-0.1,0.1-0.2,0.2-0.2,0.3c-0.2,0.4-0.1,0.8-0.2,1.1c-0.1,0.3-0.3,0.7-0.5,1c-0.5,0.7-1.1,1.3-1.7,1.9c-0.8,0.8-1.8,1.7-3.4,1.8
					c-0.9,0.1-1.6-0.1-2-0.3c-0.5,0.3-1.1,0.8-2,1.3c-0.5,0.3-2.9,1.5-6.4,2c-0.6,0.1-1.4,0.2-2.3,0.2l11.4-7.2
					c0.1-0.4,0.2-0.9,0.3-1.3c0.2-1.6,0.4-3.1,0.6-4.7c0-0.3,0.1-0.6,0.2-0.8c0.3-0.5,0.8-0.5,1.3-0.2c0.5,0.3,1,1.3,1.7,1.1
					c0.1,0,0.1-0.1,0.2-0.1c0.2-0.3,0.1-0.7,0-1c-0.1-1-0.6-2-0.6-3c0-0.2,0-0.4,0.1-0.5c0.5-1.2,2,0.5,2.4,1c1,1.3,1.8,2.6,2.6,4.1
					c0.1,0.1,0.1,0.3,0.2,0.4C338.4,284.8,338.6,285.4,338.4,286.1z"/>
			</g>
			<g>
				<path class="st21" d="M290.8,316c0,0.4-0.2,1.2-0.6,2c-0.5,0.9-1.2,1.4-1.6,1.7c-1,0.1-1.9,0.2-2.9,0.2c-0.8,0.5-1.5,0.8-2,1
					c-2.1,1-1.8,0.6-3.6,1.5c-0.6,0.3-1.2,0.6-2,0.5c-0.1,0-0.5,0-1-0.2c-0.2-0.1-0.4-0.2-0.5-0.3c-0.4-0.2-0.7-0.6-1.3-1.2
					c-1-1.2-1.5-1.8-2.1-2.7c-0.4-0.8-0.7-1.5-0.8-2.1c-0.5-0.4-1.1-0.8-1.8-1.4c1.1-0.6,2.3-1.3,3.5-2.1c1.4-1,2.5-2,3.4-3
					c0.3,0.4,0.7,0.7,1.2,1c0.8,0.4,1.1,0.2,3.2,0.8c1.2,0.3,1.6,0.5,2.4,0.5c1.2,0,2-0.1,2-0.1c0.6-0.1,1.1-0.3,1.8-0.1
					c0.3,0.1,0.5,0.2,0.6,0.3c0,0.2,0,0.7-0.2,1c-0.3,0.6-1,0.7-1.5,0.9c-1.4,0.3-2.4,0.3-2.4,0.3c-0.1,0-0.4,0-0.6,0.2
					c-0.1,0.2-0.1,0.4,0,0.5c0.4,0.3,1.1,0.8,2.2,1c0.1,0,0.1,0,0.2,0c0.5,0.1,1.4,0.2,2.2-0.2c0.2-0.1,0.6-0.4,1.1-0.7
					c0.6-0.4,0.8-0.6,0.9-0.5C290.6,315,290.8,315.1,290.8,316z"/>
			</g>
			<g>
				<path class="st11" d="M302.4,276l-33.6,21.2c1.3,1.8,2.3,3.3,3.1,4.5c0.7,1.1,2,3.2,4.3,5.7c0.7,0.7,1.3,1.4,2,2
					c-0.2,0.2-0.4,0.5-0.7,0.7c-0.9,1-2.1,2-3.4,3c-1.2,0.9-2.4,1.6-3.5,2.1c-0.6-0.5-1.3-1.1-2.1-1.7c-4.2-3.7-6.9-7-8.8-9.3
					c-0.1-0.2-0.3-0.4-0.6-0.8c-0.4-0.6-1-1.3-1.7-2.4c-1-1.3-2.2-3.1-3.8-5.4c-1.4-2-2.2-3.2-2.8-5c-0.6-2-0.7-3.6-0.5-6.5
					c0.3-6.3,1-11,1.1-11.3c0.2-1.4,0.7-4.3,1.8-9c0.1-0.4,0.2-0.9,0.3-1.3c1.9-8.5,2.9-12.7,4.3-14.8c3.7-5.2,9.2-7.3,11.2-8
					c1.2-0.4,2.4-0.8,3.5-1c0.7,0.8,1.7,1.7,3,2.6c0.7,0.5,1.5,0.9,2.3,1.2c1,0.4,2.6,1.1,4.4,1c1.4-0.1,2.7-0.6,3.7-1.3
					c-0.2-1-0.4-2-0.5-3.1c1,0.2,2.1,0.4,3.2,0.5c1.1,0.2,2.2,0.3,3.2,0.4c2.2,0.2,4.4,0.3,6.4,1.4c2.2,1.2,3.6,3.3,4.8,5.4
					c1.3,2.4,2.6,4.9,3.7,7.4c2.3,5.1,4.5,10.2,6.4,15.5L302.4,276z"/>
			</g>
			<g>
				<path class="st22" d="M262,288.1l-0.5-0.1c0.3-1,0.6-2,0.9-3c0.8-2.9,1.5-6.4,2-10c0.8-5.4,1.2-11.1,1.2-16.9l0.5,0
					c0,5.8-0.4,11.5-1.2,16.9c-0.5,3.7-1.3,7.2-2.1,10.1C262.6,286.1,262.3,287.1,262,288.1z"/>
			</g>
			<g>
				<path class="st22" d="M302.6,276l-0.5-0.1c0.3-2.2,0.6-4.3,1.1-6.3l0.1-0.4c0.5-2.1,1.1-4.6,0.2-7.6c-0.4-1.3-1.1-2.6-2.7-5.3
					c-1-1.7-2-3.4-3.1-5.1l0.4-0.3c1.1,1.7,2.1,3.4,3.1,5.1c1.5,2.5,2.3,3.9,2.7,5.4c0.9,3.1,0.3,5.8-0.2,7.8l-0.1,0.4
					C303.3,271.7,302.9,273.8,302.6,276z"/>
			</g>
		</g>
		<g>
			<rect x="122" y="445.1" class="st2" width="512.3" height="1.7"/>
		</g>
		<g>
			<g>
				<g>
					<path class="st5" d="M550.7,386c-1.1-1.6-2.4-3-3.9-4.1l1.1-4.5l-2.9-1.3l-2.9-1.3l-2.6,3.8c-1.8-0.4-3.7-0.4-5.6-0.2l-2.4-3.9
						l-2.9,1.1l-2.9,1.1l0.8,4.5c-1.6,1.1-3,2.4-4.1,3.9l-4.5-1.1l-1.3,2.9l-1.3,2.9l3.8,2.6c-0.4,1.8-0.4,3.7-0.2,5.6l-3.9,2.4
						l1.1,2.9l1.1,2.9l4.5-0.8c1.1,1.6,2.4,3,3.9,4.1l-1.1,4.5l2.9,1.3l2.9,1.3l2.6-3.8c1.8,0.4,3.7,0.4,5.6,0.2l2.4,3.9l2.9-1.1
						l2.9-1.1l-0.8-4.5c1.6-1.1,3-2.4,4.1-3.9l4.5,1.1l1.3-2.9l1.3-2.9l-3.8-2.6c0.4-1.8,0.4-3.7,0.2-5.6l3.9-2.4l-1.1-2.9l-1.1-2.9
						L550.7,386z M540.4,406.8c-6.1,2.3-12.9-0.8-15.3-6.9c-2.3-6.1,0.8-12.9,6.9-15.3c6.1-2.3,12.9,0.8,15.3,6.9
						C549.6,397.7,546.5,404.5,540.4,406.8z"/>
				</g>
			</g>
		</g>
	</g>
</g>
</svg>
